<svg id="Layer_1" enable-background="new 0 0 256 256" height="512" viewBox="0 0 256 256" width="512" xmlns="http://www.w3.org/2000/svg"><g><path d="m186.817 239.852c-127.186-96.182-70.469-197.149-70.469-197.149 4.966-9.464 11.35-16.905 18.73-22.744 45.598-36.078 112.814-2.562 112.814 55.583v146.295c0 16.156-13.097 29.252-29.252 29.252-.468-.098-16.223.56-31.823-11.237z" fill="#ffbb98"/><path d="m247.895 75.54v146.3c0 16.15-13.1 29.25-29.26 29.25-.24-.05-4.64.1-11-1.41 11.76-3.8 20.26-14.83 20.26-27.84v-146.3c0-37.67-28.21-65-60.48-69.77 39.62-5.92 80.48 24.44 80.48 69.77z" fill="#ffaa80"/><path d="m227.635 249.68c-2.83.92-5.86 1.41-9 1.41-.46-.1-16.22.56-31.82-11.24-127.18-96.18-70.47-197.15-70.47-197.15 4.97-9.46 11.35-16.9 18.73-22.74 16.06-12.71 34.8-16.78 52.34-14.19-11.2 1.67-22.29 6.24-32.34 14.19-7.38 5.84-13.76 13.28-18.73 22.74 0 0-56.71 100.97 70.47 197.15 7.47 5.65 14.97 8.45 20.82 9.83z" fill="#ffcaa6"/><g fill="#5f266d"><path d="m53.424 147.405-7.167-18.16h31.148c5.285 0 5.292-8 0-8h-37.027c-2.826 0-4.752 2.854-3.721 5.468l7.167 18.16h-35.753c-5.285 0-5.292 8 0 8h41.632c2.827.001 4.753-2.853 3.721-5.468z"/><path d="m83.26 167.825-29.461 29.461c-2.044 2.045-1.307 5.523 1.392 6.562l18.385 7.077-28.774 28.774c-3.807 3.809 1.994 9.318 5.657 5.657l33.125-33.125c2.044-2.045 1.307-5.523-1.392-6.562l-18.385-7.077 25.11-25.11c3.737-3.737-1.913-9.398-5.657-5.657z"/><path d="m60.143 53.863 18.385-7.078c2.698-1.038 3.436-4.516 1.392-6.562l-29.461-29.46c-3.738-3.736-9.399 1.914-5.657 5.657l25.11 25.11-18.385 7.078c-2.698 1.038-3.436 4.516-1.392 6.562l33.125 33.124c3.723 3.72 9.436-1.878 5.657-5.657z"/><path d="m209.755 8.54c-51.792-25.074-113.75 12.587-109.86 96.85 2.612 56.97 38.851 103.142 84.51 137.65 13.38 10.12 26.88 11.88 33.74 12.03 16.481.911 33.75-13.384 33.75-33.23v-146.3c0-28.75-16.15-54.43-42.14-67zm34.14 213.3c0 15.19-13.295 25.948-25.57 25.23-4.75-.1-17.08-1.32-29.1-10.41-50.86-38.46-78.98-83.83-81.32-131.2-3.921-79.297 52.523-111.904 98.36-89.72 23.21 11.23 37.63 34.14 37.63 59.8z"/><path d="m222.895 75.54c0 5.285 8 5.293 8 0 0-69.236-117.219-82.791-109.91 31.04 2.79 43.37 28.39 83.64 76.09 119.71 5.84 4.43 12.74 7.09 19.93 7.7 8.569.597 13.89-5.5 13.89-12.15v-18.95c0-5.285-8-5.293-8 0v18.95c0 2.425-1.894 4.468-5.21 4.18-5.69-.49-11.15-2.6-15.79-6.11-45.75-34.6-70.29-72.9-72.92-113.84-2.696-41.825 16.238-83.484 57.26-75.01-45.75 84.48-14.49 122.58 1.21 135.11 5.54 4.42 12.11 7.22 19.01 8.11 14.486 1.917 19.623-8.465 17.04-16.36l-5.65-17.29c-1.11-3.4-1.03-7.11.22-10.46l5.27-14.05c5.73-15.249-14.714-26.627-24.62-13.57l-8.24 10.87c-3.195 4.196 3.177 9.055 6.37 4.83l8.25-10.87c4.381-5.779 13.232-.658 10.75 5.93l-5.27 14.05c-1.89 5.05-2.01 10.64-.33 15.76l5.65 17.28c1.003 3.086-.648 6.935-8.42 5.95-5.45-.71-10.65-2.93-15.04-6.43-14.21-11.34-42.38-46.31 1.63-126.52 15.16 6.03 28.83 20.49 28.83 42.14z"/></g></g></svg>