<svg id="Capa_1" enable-background="new 0 0 512 512" height="512" viewBox="0 0 512 512" width="512" xmlns="http://www.w3.org/2000/svg"><g><g><path clip-rule="evenodd" d="m50.006 278.202c0 73.091 111.008 100.213 131.129 19.64 0 0 .453-23.154 38.486-51.552 31.486-23.523 53.789-44.183 59.967-80.799 5.441-32.138 2.154-70.143-14.992-98.229-38.202-62.634-129.74-77.654-182.651-37.212-32.506 24.855-32.053 60.451-31.939 96.5z" fill="#ffeee6" fill-rule="evenodd"/></g><g><path clip-rule="evenodd" d="m132.844 182.297c-18.308 9.664-45.004.34-48.235 52.77 1.559 43.418 37.976 61.896 65.975 21.709 12.073-17.316 24.826-34.122 41.886-46.847 25.534-19.073 40.073-32.252 43.615-64.9 3.713-34.576-8.077-64.334-39.393-81.168-24.316-13.037-58.635-15.757-82.753-.794-10.259 6.348-17.486 15.191-21.567 26.527-3.287 9.154-3.628 17.345-.822 26.073 5.186 16.239 13.603 13.632 27.235 13.944 9.381.227 18.478 5.073 23.692 13.717 8.107 13.434 3.8 30.863-9.633 38.969z" fill="#ffdfcf" fill-rule="evenodd"/></g><g><path clip-rule="evenodd" d="m194.285 208.569c14.595-10.968 25.449-20.15 32.563-32.564 9.239-23.948 11.138-34.774 8.644-58.552-1.445-8.644-4.138-16.721-8.19-24.118-6.575-11.903-16.664-21.964-30.607-29.474-12.271-6.575-27.093-10.543-41.858-10.911 45.061 29.474 50.36 51.864 45.599 96.018-4.761 44.155-53.676 47.641-96.356 126.57 8.105 4.676 17.911 4.846 27.802-.68.794-.482 1.615-.964 2.437-1.502 5.526-3.628 11.053-9.069 16.267-16.579 8.502-12.187 17.316-24.09 27.745-34.519 4.393-4.421 9.097-8.559 14.142-12.328.621-.455 1.217-.908 1.812-1.361z" fill="#ffcebf" fill-rule="evenodd"/></g><g><path clip-rule="evenodd" d="m275.224 90.813c-2.664-8.332-6.178-16.268-10.628-23.551-21.85-35.852-61.186-56.087-100.748-59.289h-8.247c31.316 7.85 60.336 26.612 77.963 55.52 7.567 12.413 12.441 26.754 15.049 41.689.085-.028.17-.057.255-.085 4.534-1.219 8.899-2.466 13.121-3.769 4.591-1.417 8.984-2.891 13.235-4.364z" fill="#ffdfcf" fill-rule="evenodd"/></g><g><path clip-rule="evenodd" d="m277.633 174.701c-.312-.113-.624-.227-.935-.34.311.114.623.227.935.34zm-58.012 71.589c28.765-21.454 49.85-40.556 58.012-71.589-.312-.113-.624-.227-.935-.34-.453-.17-.907-.34-1.389-.51-.028-.028-.057-.028-.085-.028v-6.15c-3.741-1.304-7.623-2.607-11.619-3.854-4.704-1.474-9.607-2.919-14.708-4.279-.113.737-.227 1.474-.34 2.211-6.178 36.616-28.482 57.277-59.967 80.799-38.032 28.397-38.486 51.552-38.486 51.552-7.794 31.175-29.219 46.224-52.542 48.718 32.761 11.421 72.352 0 83.575-44.977-.002-.001.451-23.156 38.484-51.553z" fill="#ffdfcf" fill-rule="evenodd"/></g><g><path clip-rule="evenodd" d="m174.645 147.494c40.073 2.437 73.599 10.769 100.579 20.179l14.255-38.6-14.255-32.11c-26.98 9.409-60.506 17.741-100.579 20.179z" fill="#7e707d" fill-rule="evenodd"/></g><g><path clip-rule="evenodd" d="m401.167 68.168-19.526 60.904 19.526 67.366h27.802c7.822 0 14.198-6.377 14.198-14.17v-99.901c0-7.794-6.376-14.199-14.198-14.199z" fill="#c3ddff" fill-rule="evenodd"/></g><g><path clip-rule="evenodd" d="m391.163 196.439 11.279 51.126-16.466 20.916-33.923-9.778-14.34-62.264 28-5.3z" fill="#7e707d" fill-rule="evenodd"/></g><g><path clip-rule="evenodd" d="m461.106 458.477c4.506 20.349-8.445 40.641-28.793 45.118-20.32 4.506-40.611-8.446-45.117-28.766l-27.773-125.748 35.057-24.741 38.854 8.417 14.198 64.22z" fill="#c3ddff" fill-rule="evenodd"/></g><g><path clip-rule="evenodd" d="m423.64 288.886-28.935 21.936-44.976-5.583-8.304-37.58c-.765-3.458 1.445-6.915 4.903-7.68l5.725-1.275 50.388-11.138 5.215-1.134c3.457-.765 6.915 1.445 7.68 4.903z" fill="#c3ddff" fill-rule="evenodd"/></g><g><path clip-rule="evenodd" d="m433.332 332.758-73.91 16.324-9.692-43.843 73.91-16.353z" fill="#f9f7f8" fill-rule="evenodd"/></g><g><path clip-rule="evenodd" d="m341.568 213.216h31.4l8.616 38.969 20.858-4.62-11.279-51.126h-53.45z" fill="#6a5d6a" fill-rule="evenodd"/></g><g><path clip-rule="evenodd" d="m394.762 257.315 8.02 36.191 20.858-4.62-8.304-37.551c-.765-3.458-4.223-5.668-7.68-4.903l-5.215 1.134-15.672 3.486c3.486-.765 6.943 1.445 7.708 4.903z" fill="#a4ccff" fill-rule="evenodd"/></g><g><path clip-rule="evenodd" d="m404.879 303.113 5.47 24.657 2.097 9.607 20.886-4.619-9.692-43.872-20.858 4.62z" fill="#f0f0f0" fill-rule="evenodd"/></g><g><path clip-rule="evenodd" d="m412.446 337.377 14.198 64.22 13.603 61.499c3.684 16.693-4.421 33.385-18.704 41.321 3.542.227 7.17 0 10.769-.822 20.348-4.478 33.299-24.77 28.793-45.118l-13.575-61.499-14.198-64.22z" fill="#a4ccff" fill-rule="evenodd"/></g><g><path clip-rule="evenodd" d="m275.224 96.963v70.71 6.15c19.356 7.199 36.842 16.041 48.688 22.616l20.405-64.135-20.405-64.135c-12.47 6.83-28.68 15.219-48.688 22.644z" fill="#c3ddff" fill-rule="evenodd"/></g><g><path clip-rule="evenodd" d="m323.912 68.168v128.271h67.251 10.004v-128.271z" fill="#f9f7f8" fill-rule="evenodd"/></g><g><path clip-rule="evenodd" d="m243.199 158.065c7.142 1.785 13.943 3.741 20.405 5.753 3.996 1.247 7.879 2.551 11.619 3.854v-70.71c-4.251 1.474-8.644 2.947-13.235 4.364-4.223 1.304-8.587 2.551-13.121 3.769.964 5.413 1.502 11.11 1.502 17.004.001 13.237-2.635 25.594-7.17 35.966z" fill="#6a5d6a" fill-rule="evenodd"/></g><g><path clip-rule="evenodd" d="m337.713 196.439h53.449 10.004v-37.835c-2.862 2.352-5.895 4.506-9.069 6.49-13.632 8.417-30.154 13.348-47.923 13.348-4.846 0-9.579-.34-14.198-1.049-2.04-.312-4.081-.68-6.065-1.134v20.179h13.802z" fill="#f0f0f0" fill-rule="evenodd"/></g><g><path clip-rule="evenodd" d="m275.309 173.851c10.372 3.854 19.725 7.964 28.028 11.988h.057c7.85 3.769 14.822 7.454 20.518 10.599v-20.178c-16.976-3.741-31.939-12.102-43.19-23.494-1.927-1.984-3.769-4.053-5.498-6.207v21.114 6.15c.028 0 .056 0 .085.028z" fill="#a4ccff" fill-rule="evenodd"/></g><g><path clip-rule="evenodd" d="m401.167 196.439h27.802c7.822 0 14.198-6.377 14.198-14.17v-99.902c0-7.794-6.376-14.199-14.198-14.199h-8.757c5.611 10.203 8.757 21.709 8.757 33.867 0 22.418-10.712 42.596-27.802 56.568z" fill="#a4ccff" fill-rule="evenodd"/></g><path d="m468.428 456.861-12.187-55.208c-.892-4.046-4.897-6.606-8.939-5.707-4.045.892-6.6 4.895-5.707 8.939l12.188 55.214c1.746 7.884.298 16.002-4.078 22.856-4.374 6.853-11.124 11.581-19.018 13.318-7.87 1.748-15.977.299-22.832-4.074-6.856-4.372-11.593-11.117-13.338-18.988l-26.162-118.423 59.263-13.09 6.44 29.151c.892 4.043 4.889 6.597 8.941 5.705 4.044-.893 6.598-4.896 5.705-8.941l-26.046-117.901c-1.502-6.786-7.74-11.31-14.465-10.892l-7.696-34.883h28.471c11.964 0 21.698-9.721 21.698-21.67v-99.9c0-11.965-9.734-21.699-21.698-21.699h-105.056c-1.234 0-2.525.315-3.603.922-10.388 5.691-24.076 12.842-40.612 19.459-2.464-6.316-5.371-12.248-8.694-17.693-19.133-31.361-52.396-53.524-91.26-60.804-37.853-7.092-75.164.76-102.352 21.542-35.123 26.849-35.003 64.724-34.888 101.351l.004 25.423c0 4.142 3.357 7.499 7.499 7.499s7.499-3.357 7.499-7.499v-24.346l-.004-1.125c-.107-34.485-.211-67.058 28.999-89.387 23.816-18.206 56.799-25.026 90.482-18.716 34.692 6.499 64.294 26.136 81.217 53.876 3.738 6.124 6.878 13.003 9.37 20.448-9.569 3.175-19.254 5.97-29.042 8.345-6.893-18.203-20.001-32.883-38.29-42.712-13.3-7.133-29.199-11.319-44.77-11.785-17.096-.507-32.819 3.374-45.477 11.229-11.738 7.263-20.041 17.479-24.679 30.37-3.898 10.87-4.183 20.689-.903 30.882 6.158 19.304 18.384 19.215 29.18 19.142 1.619-.011 3.295-.022 5.01.016 7.227.179 13.755 3.952 17.46 10.092 2.886 4.784 3.737 10.401 2.4 15.813-1.321 5.343-4.622 9.864-9.305 12.751-3.525 1.82-7.745 2.89-12.207 4.022-16.496 4.186-37.027 9.395-39.819 54.827-.015.242-.018.485-.009.728.898 25.086 12.898 44.658 30.571 49.861 3.129.921 6.288 1.375 9.448 1.375 14.006 0 28.035-8.911 39.597-25.508 10.628-15.244 23.377-32.56 40.225-45.129 20.927-15.631 35.688-28.087 42.775-50.968 9.431 2.322 18.765 5.034 27.991 8.099v.755c0 1.446.43 2.812 1.165 3.981-7.998 24.62-25.383 41.284-53.755 62.479-36.754 27.441-40.966 50.803-41.438 56.396-9.162 35.468-36.853 45.12-59.828 42.301-28.008-3.445-56.362-25.428-56.362-60.779v-92.706c0-4.142-3.357-7.499-7.499-7.499s-7.499 3.357-7.499 7.499v92.706c0 20.087 7.477 38.197 21.622 52.372 12.765 12.791 29.778 21.063 47.908 23.293 2.946.362 5.987.554 9.085.554 26.483-.001 57.108-13.985 67.29-54.756.153-.613.228-.984.223-1.598.12-1.293 2.511-21.155 35.474-45.766 24.66-18.422 47.627-37.559 58.264-67.631 15.005 6.157 27.467 12.636 37.934 18.346 1.088.597 2.363.923 3.604.923h7.833l11.33 49.197c-2.919 1.028-5.405 2.98-7.102 5.637-2.01 3.146-2.674 6.877-1.87 10.504l45.77 207.176c2.613 11.784 9.686 21.868 19.917 28.393 7.4 4.719 15.788 7.154 24.317 7.154 3.267 0 6.556-.357 9.816-1.08 11.799-2.596 21.894-9.661 28.426-19.894 6.532-10.234 8.691-22.369 6.078-34.164zm-59.762-381.193h20.302c3.694 0 6.699 3.006 6.699 6.7v99.901c0 3.678-3.005 6.671-6.699 6.671h-20.302zm-220.68 128.249c-18.64 13.906-32.256 32.363-43.558 48.573-10.245 14.708-22.09 21.388-32.502 18.32-11.302-3.327-19.053-17.3-19.804-35.65 2.181-34.156 13.809-37.108 28.515-40.839 5.195-1.318 10.566-2.681 15.71-5.396.126-.066.25-.137.372-.21 8.213-4.953 14.002-12.804 16.302-22.108 2.298-9.3.836-18.944-4.118-27.159-6.367-10.551-17.556-17.033-29.95-17.34-1.955-.044-3.742-.032-5.468-.019-10.146.07-11.982.084-14.791-8.721-2.251-6.993-2.023-13.544.735-21.234 3.509-9.752 9.545-17.174 18.463-22.692 20.021-12.422 50.969-12.003 75.251 1.022 14.538 7.814 24.778 18.825 30.564 32.779-16.312 3.25-32.854 5.397-49.515 6.411-3.958.241-7.044 3.521-7.044 7.486v30.353c0 3.965 3.087 7.245 7.044 7.486 17.11 1.041 34.091 3.278 50.828 6.676-6.031 18.014-18.432 28.367-37.034 42.262zm-5.841-63.414v-16.37c29.103-2.309 57.816-7.935 85.58-16.765v49.901c-27.761-8.831-56.474-14.457-85.58-16.766zm134.267 43.459c-9.528-4.908-20.828-10.288-33.689-15.308v-72.67c12.925-5.043 24.204-10.419 33.689-15.317zm14.999 4.978v-113.272h62.256v113.272zm53.726 14.999 8.366 37.922-35.81 7.915-10.557-45.837zm-36.16 63.135 59.264-13.091 6.451 29.202-59.26 13.111zm9.694 43.867 59.257-13.111 6.456 29.222-59.257 13.089z"/></g></svg>